<svg xmlns="http://www.w3.org/2000/svg" viewBox="0 0 414.32 663.93"><defs><style>.cls-1{fill:#f39da0;}.cls-2{fill:#fff;}.cls-3{fill:#1d1d1b;}.cls-4{fill:#f2cead;}.cls-5{fill:#5a483f;}.cls-6{fill:#fad2c0;}.cls-7{fill:#130b08;}.cls-8{fill:#a46d50;}.cls-9{fill:#d49a7d;}.cls-10{fill:#c5b3af;}.cls-11{fill:#638394;}</style></defs><g id="Layer_2" data-name="Layer 2"><g id="Layer_1-2" data-name="Layer 1"><rect class="cls-1" x="116.49" width="176.16" height="358.87" rx="88.08"/><path class="cls-2" d="M181.19,576.34c-.46,49.74,7.55,51.3-45.55,49.6h0l-19.07,0h0l-26.35,0h0l-16,0-.07-62.72c0-5,.9-5.94,8-5.39v-7.61l-26.89,0,.1,85.92,27.61,0h0l26.35,0h0l33.61,0h0l19.08,0h0c20,2.37,37.62-6.25,38.3-29.55l0-17.26c-.85-7.49,3.56-5.22,8-5.58v-7.42Z"/><path class="cls-2" d="M183.81,644.44c-12.09.24-12.25,19.23,0,19.49C196.15,663.34,195.94,645,183.81,644.44Z"/><path class="cls-2" d="M345.88,644.26c-12.09.24-12.26,19.23,0,19.48C358.22,663.15,358,644.77,345.88,644.26Z"/><path class="cls-2" d="M370.33,576.13l-27.07,0c-.46,49.74,7.55,51.3-45.55,49.6h0l-26.34,0h0l-19.08,0h0l-16,0-.07-62.73c0-5,.9-5.94,8-5.39v-7.6l-26.89,0,.1,85.91L245,636h0l33.62,0h0L305,636h0l19.08,0h0c20,2.37,37.62-6.25,38.3-29.55l0-17.25c-.85-7.49,3.56-5.22,8-5.58Z"/><path class="cls-2" d="M13,525.34l-.1-88.18c0-9.62-1.66-16-11.27-15.94H0V416.3l43.16-.05c10.08,0,21.81.68,31,4.42,9.39,4,16,10.77,16,23.44a19.65,19.65,0,0,1-5.38,13.37c-3.75,4.23-9.14,7.75-16.65,9.64,10.33,1.16,17.13,4.2,21.36,8.88,4.23,4.45,5.64,10.08,5.65,16.41,0,15.72-6.08,23.23-15,27.46S59.23,525.29,48,525.3ZM43.16,422.58a28.8,28.8,0,0,0-6.8.71c-1.17.24-2.11.24-2.81.47l0,40.35,12,0c12.89,0,22.27-5.65,22.25-20.66,0-8-3.06-13.14-7.52-16.41C55.59,424,49.26,422.57,43.16,422.58ZM44.91,519h.71c17.59,0,27.2-8,27.18-25.84,0-14.77-9.18-22-27.24-22h-12l0,46.21a13.85,13.85,0,0,0,3.29.7A34.17,34.17,0,0,0,44.91,519Z"/><path class="cls-2" d="M156,416.12l35.75,88.62c3.76,9.37,9.4,15.23,16.67,15.93v4a37.92,37.92,0,0,1-7.73,1A36.58,36.58,0,0,1,184,521.87a26.87,26.87,0,0,1-14.8-17.11l-3.76-12.42-42.22,0-13.1,33.09h-8.44l47-109.35Zm-11,27.45L126.5,485.34l36.11,0Z"/><path class="cls-2" d="M219,525.11l-.1-88.19c0-9.61-1.66-15.94-11.28-15.93h-1.64v-4.93l43.16-.05c10.09,0,21.81.68,31,4.42,9.39,4,16,10.78,16,23.44a19.56,19.56,0,0,1-5.38,13.38A32.1,32.1,0,0,1,274,466.88c10.32,1.16,17.13,4.2,21.35,8.89,4.23,4.45,5.64,10.08,5.65,16.41,0,15.72-6.07,23.23-15,27.46s-20.87,5.42-32.13,5.43Zm30.14-102.76a28.74,28.74,0,0,0-6.8.71c-1.18.23-2.11.24-2.82.47l.05,40.34h12c12.9,0,22.27-5.65,22.26-20.67,0-8-3.07-13.13-7.53-16.4C261.52,423.74,255.18,422.34,249.09,422.35Zm1.75,96.39h.7c17.59,0,27.2-8,27.18-25.83,0-14.78-9.17-22-27.23-22l-12,0,.05,46.2a13.3,13.3,0,0,0,3.28.7A33.21,33.21,0,0,0,250.84,518.74Z"/><path class="cls-2" d="M361.89,415.89l35.75,88.61c3.77,9.38,9.4,15.24,16.67,15.93v4a38.83,38.83,0,0,1-7.74,1,36.59,36.59,0,0,1-16.66-3.74,26.81,26.81,0,0,1-14.79-17.1l-3.77-12.43-42.22,0-13.09,33.09H307.6l47-109.35Zm-11,27.45-18.48,41.77,36.12,0Z"/><path class="cls-3" d="M238.89,139.79c.6.42,1.23.75,1.83,1.1,7.72,4.67,15,9.08,19.91,20.68s6.68,23.85,5.63,37.83a15.35,15.35,0,0,1-.16,2.06l-.06.43c-.3,3-.73,6-1.28,9.15l.31,4.25a16,16,0,0,1,2.9,3.61,22.34,22.34,0,0,1,3.2,8.77,34.84,34.84,0,0,1,.21,3.52c0,.38,0,.75,0,1.13a9.55,9.55,0,0,1-.09,2l-.12.81c-.07.5-.15,1-.21,1.5-.05.34-.09.68-.13,1a32.63,32.63,0,0,1-1.41,6.95c-.3.89-.59,1.78-.88,2.66l-.4,1.24a10.67,10.67,0,0,1-1.52,2.94,30.72,30.72,0,0,1-1.73,2.64c1.78,17-10.62,37.18-14.65,43.2-9.38,14-21.31,21.53-37.54,23.6-.77.1-1.57.17-2.39.22a27.13,27.13,0,0,1-6.22.68,50.32,50.32,0,0,1-16.16-3.1c-11.24-4.13-20.54-12.63-26.79-22.73a59.89,59.89,0,0,1-7.07-16.34c-.75-2.89-1.74-5.62-2.5-8.51-.33-1.25-.75-8-1.59-8.57a16.69,16.69,0,0,1-5.93-7.52c-6.89-15.09-8.26-29-3.85-38.6a9.81,9.81,0,0,1-.48-2.87,10.9,10.9,0,0,1,2.23-7.07l.13-.17a34.29,34.29,0,0,1-.47-3.75,55.27,55.27,0,0,1,.85-12.37c2.23-14.64,5.64-31.24,17.92-42.92,14-13.29,34-14.57,47.81-14.36C208.23,132.9,229.15,132.88,238.89,139.79Zm-59,148a43.35,43.35,0,0,0,5.29,5.17c3.22,2.75,6.7,5.48,10.28,6.8,4.66,1.71,9.46,2.18,10.85,1.77a9.94,9.94,0,0,1,3-.51,13.09,13.09,0,0,0,1.59-.11c10-1.28,16.59-5.34,22.49-14a10.06,10.06,0,0,1-5.52,0,9.68,9.68,0,0,1-6.92-9.76l.06-1.26a10.49,10.49,0,0,1,7.54-9.55,12,12,0,0,1,1.35-.31,9.78,9.78,0,0,1,2.1-.47l-.3-.06-.74-.16h0l-.14,0-.85-.19a9.57,9.57,0,0,1-6.48-5l-.14-.07a22.36,22.36,0,0,1-6.29-4.55,26.19,26.19,0,0,1-2.32-2.87,9.92,9.92,0,0,1-1.1-9.29,10.52,10.52,0,0,1,7.08-6.4l.4-.11a9.78,9.78,0,0,1,10.73,3.92c.1.15.2.3.31.44a6.15,6.15,0,0,0,2,1.3l.76.39.64.32a9.62,9.62,0,0,1,4.19,2.47c1.12-.12,2.3-.29,3.5-.47a10.3,10.3,0,0,1,3.28.06,10.65,10.65,0,0,1,1.34-1.59,9,9,0,0,0,1.66-2.22c.3-.91.6-1.83.91-2.74a17.72,17.72,0,0,0,.47-2.81c0-.42.09-.83.15-1.24s.15-1.11.23-1.66c0-.24,0-.46,0-.67,0-.59,0-1.16-.07-1.53a4.39,4.39,0,0,0-.27-.59,9.67,9.67,0,0,1-6.39-9,10.29,10.29,0,0,1,.5-3.29l-.44-6.06a9.53,9.53,0,0,1,.15-2.61c.58-3.08,1-6.09,1.29-9,0-.2,0-.4.07-.59l0-.1q0-.34,0-.69c.88-10.9-.47-20.4-4.11-29-2.47-5.85-5.3-7.56-12.16-11.71L228,157.07c-5.52-3.37-13.22-3.94-20.72-4-10.23-.14-24.79.59-33.23,8.61-7.48,7.11-9.85,19.17-11.64,30.92a39.17,39.17,0,0,0-.67,7.92,28.15,28.15,0,0,0,2.33,8.31,10,10,0,0,1,.1,7.3,10.29,10.29,0,0,1-1.48,4.89,10.52,10.52,0,0,1-4.46,4.06c-.68,2.48-1.07,9.57,4.29,21.24l.28.11a9.44,9.44,0,0,1,2.38,1.18,9.59,9.59,0,0,1,4.38,7.2c.07.72.14,1.4.2,2.07a43.87,43.87,0,0,0,1.89,10.48c.21.69.43,1.37.64,2a10.52,10.52,0,0,1,7.14-6A9.72,9.72,0,0,1,191,269.49l1.8,5.07a10.33,10.33,0,0,1-4.61,12.28A10.15,10.15,0,0,1,179.89,287.79Zm41.46-11.51Zm-30.22-4.63-.64.53.94-.1A4.15,4.15,0,0,0,191.13,271.65Zm45.58-5.5a9.56,9.56,0,0,1,5.22,4.87,54.4,54.4,0,0,0,1.87-5.39c-1.17.13-2.31.24-3.43.34l-1.08.1h0A19,19,0,0,1,236.71,266.15Zm-7.68.2h0ZM158.58,246.1h0Zm1.11-.21h0Zm0,0h0Zm75.62-2.74h0Zm-.45-.07Zm16.35-12.24Zm0-.09h0Zm-101-5.51h0Zm.56-1.13h0Zm0,0h0Zm0,0h0Zm-3-.36Zm5.44-.31-.12,0Zm-13.51-10Zm0,0s0,0,0,0S139.75,213.38,139.75,213.37Zm106.38-13.24h0Zm-69.87,25.74a16.29,16.29,0,0,1-2.36-.17,9.66,9.66,0,0,1-8.26-9.85,10.49,10.49,0,0,1,8.71-10,18,18,0,0,1,6.29-.09,9.65,9.65,0,0,1,8,10.15,10.49,10.49,0,0,1-9.09,9.74h-.05A21.86,21.86,0,0,1,176.26,225.87Zm.55-2.05-.37,1.73a3.88,3.88,0,0,0,.61.06Z"/><path class="cls-4" d="M159.61,253.81a4.18,4.18,0,0,1,2,3.16c.07.74.13,1.44.2,2.13A51.4,51.4,0,0,0,164,271.34c1.44,4.74,3.08,9,4.4,12.39.8,2.06,1.48,3.84,2,5.42,1.46,4.31,4.9,7.88,9.63,11.93,3.8,3.25,8,6.5,12.61,8.21,5,1.83,11.9,3.08,15.46,1.92a4.36,4.36,0,0,1,1.28-.22,21.26,21.26,0,0,0,2.34-.17c12.46-1.58,21.26-7.14,28.52-18C247.4,282.17,255,266.13,252.92,256a4.52,4.52,0,0,1-.09-1l.13-3a4.44,4.44,0,0,1,1.36-3,16.38,16.38,0,0,0,3-4l.21-.36.16-.48c.32-1,.64-2,1-3a22.1,22.1,0,0,0,.78-4.24l.15-1.23c.08-.61.17-1.22.26-1.82l.06-.39c0-.4,0-.8,0-1.2a22.21,22.21,0,0,0-.12-2.26h0a9.85,9.85,0,0,0-1.49-3.66,6,6,0,0,0-1.94-1.62,4.18,4.18,0,0,1-3.51-4.09,4.48,4.48,0,0,1,.61-2.31l-.57-7.86a3.89,3.89,0,0,1,.07-1.13c.64-3.42,1.13-6.78,1.43-10a2.34,2.34,0,0,1,0-.26l0-.18c0-.15.05-.29.07-.44h0v-.16a4.51,4.51,0,0,1,0-.52c1-12.47-.56-23.39-4.78-33.37-3.34-7.92-7.79-10.61-15.17-15.07l-2-1.19c-7-4.3-16.11-5-24.86-5.13-12.85-.18-28.95.88-39.42,10.82-9.34,8.88-12.12,22.75-14.17,36.2a45.28,45.28,0,0,0-.76,9.7,35,35,0,0,0,2.89,10.62,4.37,4.37,0,0,1-.42,4.07,4.38,4.38,0,0,1-.57,3.13,4.54,4.54,0,0,1-3.07,2.13c-.25,0-.84.43-1.46,1.59-2.3,4.3-2.6,14.48,4.12,29,.15.33.19.3.23.59.19.36,1,1.57,3.45,2.39A3.94,3.94,0,0,1,159.61,253.81Zm-2.79-.59Zm-7.15-34h0Zm-1.44-1.53ZM182,285.15a4.21,4.21,0,0,1-3.25-1.52,10.84,10.84,0,0,1-2-3.71,17.82,17.82,0,0,1-.84-4,4.54,4.54,0,0,1,3.46-4.7,4.2,4.2,0,0,1,5,2.66l1.89,5.32a4.48,4.48,0,0,1-2,5.32A4.53,4.53,0,0,1,182,285.15Zm50.12-1A4.22,4.22,0,0,1,231,284a4.16,4.16,0,0,1-3-4.22l0-1.32a4.54,4.54,0,0,1,3.26-4.13,5.68,5.68,0,0,1,.93-.19l.22-.05.26-.06a4.23,4.23,0,0,1,5.59,2.25,4.31,4.31,0,0,1,.31,1.76,4.54,4.54,0,0,1-2.54,3.9l-.12.19A4.52,4.52,0,0,1,232.16,284.14Zm-3.74-5.59h0ZM232.6,274Zm6.61-12.1a20.71,20.71,0,0,1-3.88-.41l-.42-.1a3.07,3.07,0,0,1-.42-.07l-.73-.15h0l-.16,0-.85-.19a4.17,4.17,0,0,1-3.25-3.61c-.58-.28-1.12-.57-1.6-.83h0l-.57-.3a18.12,18.12,0,0,1-5.07-3.58,23.22,23.22,0,0,1-1.94-2.41,4.31,4.31,0,0,1-.47-4,4.54,4.54,0,0,1,3.06-2.77l.42-.11A4.23,4.23,0,0,1,228,245c.16.24.32.48.49.71a11.33,11.33,0,0,0,4.24,3.12l.72.37a9.55,9.55,0,0,0,1.69.76,4.15,4.15,0,0,1,3,3,46.1,46.1,0,0,0,7.78-.7,4.26,4.26,0,0,1,2.47.36l.47.23a4.21,4.21,0,0,1,2.31,4.57,4.57,4.57,0,0,1-3.78,3.68c-1.88.28-3.74.45-5.54.62l-1.16.11h0A14.35,14.35,0,0,1,239.21,261.92ZM175,219.57a10.58,10.58,0,0,1-1.58-.11,4.17,4.17,0,0,1-3.57-4.26,4.54,4.54,0,0,1,3.77-4.34,12.5,12.5,0,0,1,4.47-.1,4.16,4.16,0,0,1,3.44,4.39,4.52,4.52,0,0,1-3.93,4.21h-.06A18.68,18.68,0,0,1,175,219.57Z"/><path class="cls-4" d="M257.14,256l.41-9.86-6.82-26.42-24.8-3.81-30.26-.48-20.43.33-12.87,6.81-5.2,12.33L160,249.56l23.91,9.16s41.7-11.64,42.17-11.64,22.8,10.71,22.8,10.71Z"/><path class="cls-4" d="M247.79,207.56a4.56,4.56,0,0,1,0,3.05l-2.7-.44,2.32-5.73A16.85,16.85,0,0,0,247.79,207.56Z"/><path class="cls-4" d="M206.94,213.75c.29.37.57.79-.15,1.17a1.22,1.22,0,0,0-.53,1c0,.41-.18.6-.4.65l-.48-.07h0l-1.95-.26c-14.58-2-28.2-4.12-35.27-5.25.14-.19.6-.32,1.5-.53.05-.25-.19-.24-.3-.34a.52.52,0,0,1-.19-.6.58.58,0,0,1,.62-.38,9.48,9.48,0,0,1,1.69.15c.61.15.92-.09.93-.63,0-.79.41-.87,1-.64a1.57,1.57,0,0,0,1.91-.25,2.63,2.63,0,0,1,2.06-.4,8.39,8.39,0,0,0,2.5,0,8.88,8.88,0,0,1,2.7.17,2,2,0,0,0,1.49-.17.46.46,0,0,1,.32-.09c1.46.28,3-.16,4.42.23.28.06.59.21.84.05,1.13-.75,2.08-.1,3.09.23a1.62,1.62,0,0,0,1.35-.09,2.43,2.43,0,0,1,2.46.43,2.76,2.76,0,0,0,3,.18.72.72,0,0,1,1,.26,4.16,4.16,0,0,0,2.35,1.37.61.61,0,0,1,.31.11A46.16,46.16,0,0,1,206.94,213.75Z"/><path class="cls-4" d="M223.37,201.49a28.33,28.33,0,0,1-7.12,1.06A18.76,18.76,0,0,1,212,202a20.25,20.25,0,0,0-5.33-.47c-.79,0-1.58,0-2.59,0a2.07,2.07,0,0,1,1.32-.33,28.21,28.21,0,0,1,7.28.63,19.3,19.3,0,0,0,8.65-.17c1.42-.32,2.85-.61,4.29-.86A5.44,5.44,0,0,1,223.37,201.49Z"/><path class="cls-4" d="M195.51,193a7.55,7.55,0,0,1,2.6-.54,17.91,17.91,0,0,1,5.41.59c2.93.67,5.82,1.5,8.82,1.88a39.2,39.2,0,0,0,10,.15,57.45,57.45,0,0,0,7.89-1.4,2.27,2.27,0,0,1,.45,0A23.9,23.9,0,0,1,225,195a45.3,45.3,0,0,1-6.24.61,42.69,42.69,0,0,1-6-.34c-3.91-.46-7.64-1.68-11.49-2.39a16.43,16.43,0,0,0-5.46.12A.58.58,0,0,1,195.51,193Z"/><path class="cls-5" d="M257.9,220.2c-4.29,1.39-18.17.42-34-1.37.58-.68,1.1-1.41,1.65-2.11.27-.34.49-.73,1-.65v-.48l-.29-.07a3.2,3.2,0,0,1-1.9.53c-.2,0-.52,0-.52-.16,0-1-.94-.79-1.49-1-.78-.34-1-.83-.58-1.53a10.09,10.09,0,0,1,3.58-3.44,9.43,9.43,0,0,0,1.45-.93c.81-.71,1.81-.64,2.73-.91a.81.81,0,0,1,.86.22c.5.67,1,.28,1.46,0a1.25,1.25,0,0,1,1.42-.18,1.22,1.22,0,0,0,1.23-.1,4.21,4.21,0,0,1,1.28-.52c.33-.07.76,0,.8.28.12.86.61.54,1.06.37a1.23,1.23,0,0,1,1.55.28c.3.38.71.33,1.15.21.7-.2,1.39-.38,2.09-.55a1.13,1.13,0,0,1,1.34.28,2.13,2.13,0,0,0,1.79.25c.4-.1.76-.14,1,.27s.79.07,1.18,0,1-.4,1.44,0a1.85,1.85,0,0,0,1.94.38c.91-.23,1.05,0,.87.87a.34.34,0,0,0,.19.4,36.39,36.39,0,0,1,3.81,3c.75-.85.59-2,.78-2.92.09-.49.19-1,.29-1.46Z"/><path class="cls-6" d="M241,225.42s1.59-8.56-5.59-10-13.61,12.83-2.51,36.78c0,0,1.34,5.12,10.33,6Z"/><path class="cls-4" d="M235.1,215.53a.32.32,0,0,0,0,.14,2.45,2.45,0,0,0,1.6,2.13c.54.22,1.08.6,1.61,0,.68.51,1.45.92,1.79,1.76a1.8,1.8,0,0,0,.14.76,10.28,10.28,0,0,1,.72,4.11,1.92,1.92,0,0,0,.22,1c-.32.1-.43.34-.28.61a3.08,3.08,0,0,1,.2,1.53c0,2.5-.48,5-.45,7.47s.25,4.71.22,7.06a1.72,1.72,0,0,0,.29,1.25,1.8,1.8,0,0,0,0,.46c.23,2.25.13-4.86.23-2.6a33.61,33.61,0,0,0,.22,4.81,31,31,0,0,1,.45,3.61,14.18,14.18,0,0,0,.49,3.21c.38,1.46.54,3.9.81,5.39-.84,0-1.67-1-2.5-.9-1,.1-1.77.5-2.62.2l.05-.07.06,0c.21,0,.42.06.63.06s.65-.85.75-1.21-.26.47-.52.37c-.58-.23-1.18-.43-1.75-.68a4.76,4.76,0,0,1-2.64-2.73,23.57,23.57,0,0,1-1.07-5.51c-.19-1.65-.44,6-.72,4.42-.24-1.36-.73-2.68-1.06-4-1.08-4.41-2.1-8.84-3.21-13.27a52.36,52.36,0,0,1-1-8.38,11.85,11.85,0,0,1,.67-4.43,9.25,9.25,0,0,1,2.37-4.52A5.89,5.89,0,0,1,235.1,215.53ZM238.72,236c-.08-.1-.3-.13-.11-.34a5.23,5.23,0,0,0,.56-.75,2.1,2.1,0,0,0-.15-2.3,33.14,33.14,0,0,1,.07-3.59.21.21,0,0,0,0-.34,15.34,15.34,0,0,0-.29-2.62,7.31,7.31,0,0,0-1.44-3.32,10.13,10.13,0,0,0-3.94-2.71c-.13-.28-.39-.16-.61-.18-.46,0-.93.23-1.37-.1a.45.45,0,0,0-.58.11,5.18,5.18,0,0,0-2,3.87c0,.92,0,1.84,0,2.75a5,5,0,0,0,.27,2.24c.11.25.19.54.49.53s.44-.27.49-.54.1-.43.36-.45.32.26.34.44c.19,1.34.58,2.64.82,4s.36,2.72.56,4.07c.23,1.58.48,3.15.76,4.71.08.43.16.94.75,1.06l.3.18c0,.13.07.25.11.38a.76.76,0,0,0,0,.81,5.39,5.39,0,0,0,1.61,1.65,2.09,2.09,0,0,0,3.2-1.77,3.81,3.81,0,0,0-1.06-2.6c-.5-.57-.42-.93.11-1.39a3.51,3.51,0,0,0,1.22-2.86C239.19,236.5,239.13,236.16,238.72,236Z"/><path class="cls-5" d="M219.62,225.93a.24.24,0,0,0,.21-.3l.3-.35c.22,0,.32-.21.42-.37a7.88,7.88,0,0,1,2.88-2.88,14.41,14.41,0,0,1,1.48-.72c.15-.06.32-.15.31-.34a.26.26,0,0,0-.31-.19c-1,.14-1.92-.33-2.91-.22l-2-.25-.17,0a81.83,81.83,0,0,0-14.56-.36c.59.49,1,.8,1.39,1.17a9.14,9.14,0,0,1,2.11,2.46c.73,1.6,1.3,3.27,1.92,4.91a1.34,1.34,0,0,0,.73.8,6.91,6.91,0,0,0,4.43.54c1.35-.29,2.65-.8,3.09-2.35l.08-.22.2-.65a1,1,0,0,0,.37-.65Zm13.93-3.7a1.37,1.37,0,0,0-1,.1l-1,.2a.65.65,0,0,0-.67,0c-.63-.28-1.11.23-1.66.37a.19.19,0,0,0-.23.12l-.42.25a1.06,1.06,0,0,0-.31,0,18,18,0,0,0-6,4.33,4,4,0,0,0-1.35,2.69,8.83,8.83,0,0,1-.36,1.74,11.41,11.41,0,0,0,.08,5.69,15.29,15.29,0,0,0,.88,4,21.88,21.88,0,0,0,3.36,6.64,15.43,15.43,0,0,0,5.71,4.36,14.75,14.75,0,0,0,3.56,1.52,40.53,40.53,0,0,0,9.41.46,28.65,28.65,0,0,0,8.64-1.89,9.15,9.15,0,0,0,4.14-2.45,7.71,7.71,0,0,0,2.63-2.84,17.14,17.14,0,0,0,2.76-6,65,65,0,0,0,1.24-6.91c.28-2.41.66-4.85-.07-7.18a7.75,7.75,0,0,0-4.2-5c-1.95-.91-4.1-.79-6.16-1.15a6.11,6.11,0,0,0-1.71-.27,1.67,1.67,0,0,0-1.06,0h-.48a27.36,27.36,0,0,0-3.95-.09h-.58c-1.15-.25-2.23.39-3.36.41H241a3.78,3.78,0,0,0-1.64,0l-.33,0a.75.75,0,0,0-.71,0l-.76.09A8.86,8.86,0,0,0,233.55,222.23Zm-21.1,12.28a1.73,1.73,0,0,0-.32,0,6.12,6.12,0,0,0-3.7,3,86.45,86.45,0,0,1-5.86,9.3c-1.57,2.17-3,4.5-5.6,5.72a1.24,1.24,0,0,0-.26.19.44.44,0,0,0-.22.41,2.76,2.76,0,0,1-.5,1.73,4.75,4.75,0,0,0-.18,3.49c.37,1.19.79,1.4,2.11,1.25.4,0,.8-.12,1.2-.15a8.44,8.44,0,0,1,4,.73c1.7.77,3,2.1,4.66,2.95,2.84,1.47,5.76,2.48,9,.8a11.84,11.84,0,0,0,2.64-1.58,4,4,0,0,1,1.65-.91c1.08-.31,2.2-.25,3.28-.56a4.44,4.44,0,0,0,2.85-2.35,4.19,4.19,0,0,0-.24-3.87c-.31-.66-.38-1.43-1.07-1.93a10.4,10.4,0,0,1-2.79-3c-.43-.69-.86-1.38-1.32-2.05a15.75,15.75,0,0,1-2.85-5.84,39,39,0,0,1-1-4.73c0-.5.17-1.12-.28-1.56C216.17,234.07,214.35,234.15,212.45,234.51Zm-5.37-1.2c.74-2.15,1.36-4.24.54-6.56a7.4,7.4,0,0,0-5.6-5.13c-1.5-.35-3-.76-4.49-1.06a28.39,28.39,0,0,0-5-.76c-1.43-.21-2.87-.36-4.27-.64a29.36,29.36,0,0,0-5.92-.6c-1.25,0-2.51-.16-3.76,0-2.8.27-5.58.71-8.38,1a7,7,0,0,0-4.74,2.53,2,2,0,0,0-.48.84c-.26,1.07-.5,2.15-.81,3.2a36.34,36.34,0,0,0-1.22,6.42,23.1,23.1,0,0,0,.88,8.87,12.57,12.57,0,0,0,4.15,6.67,14.87,14.87,0,0,0,4.69,2.64,24.14,24.14,0,0,0,3.6,1.11,54.39,54.39,0,0,0,6.77.8,56.8,56.8,0,0,0,6.78,0c3.33-.25,6.29-1.29,8.45-4.07,1.48-1.91,2.93-3.81,4.22-5.86A39.62,39.62,0,0,0,207.08,233.31Z"/><path class="cls-7" d="M228.26,210.36h0Z"/><path class="cls-4" d="M256.14,248.78c.14-2.48.38-5,.34-7.44-.05-3.47,0-7-.84-10.37-.47-1.85-1.2-3.62-1.8-5.43-.46-1.4-.83-2.84-1.24-4.27a5.77,5.77,0,0,0-1.71-.27,1.44,1.44,0,0,1-1.06,0h-.48a11.57,11.57,0,0,1-3.94-.09h-.6l-.54.11c-5.87-.34-15.05,0-19.29,4.79,0,0-3.71,4.73-3.72,9.64l0,.17a4.22,4.22,0,0,1-.53,2.16,15.29,15.29,0,0,0,.88,4,21.88,21.88,0,0,0,3.36,6.64,15.35,15.35,0,0,0,5.71,4.36,14.21,14.21,0,0,0,3.56,1.52,40.55,40.55,0,0,0,9.41.46,28.85,28.85,0,0,0,8.65-1.89,9.17,9.17,0,0,0,4.13-2.45A3.3,3.3,0,0,1,256.14,248.78Zm-30.62-15.45s.06,0,.06,0a.76.76,0,0,1,0,.11l-.11,0A.49.49,0,0,1,225.52,233.33Zm.7.75s-.05,0-.07,0-.13-.13-.14-.24l0,0H226A1.24,1.24,0,0,0,226.22,234.08Zm1,1.1a1,1,0,0,1-.75-.71A1,1,0,0,1,227.19,235.18Zm1.8,5-.3-.18a2,2,0,0,1-1.09-1.13,2.54,2.54,0,0,1-1.24-1.3,9.1,9.1,0,0,1-1.67-3l.2-.11c.51,1,1,2,1.51,3a2.7,2.7,0,0,1,1.23,1.31,2.39,2.39,0,0,1,1.13,1.09l.3.18a4.91,4.91,0,0,1,1.59,1.2A3.15,3.15,0,0,1,229,240.19Zm-1.3-4.55a40.27,40.27,0,0,0,4.21,2.1A9.07,9.07,0,0,1,227.69,235.64Zm3.36,5.89c1.28.58,2.57,1.12,3.81,1.74A10.74,10.74,0,0,1,231.05,241.53Z"/><path class="cls-4" d="M256.86,253.63c3.55,12.44-6.12,31.26-13,41.53-7.9,11.8-17.68,18.2-31.71,20a36,36,0,0,1-12.46-.94c-2.07-.46-4.17-.82-6.18-1.48a19.29,19.29,0,0,1-4.5-2.41c-.91-.59-1.78-1.22-2.64-1.88a3.5,3.5,0,0,0-1.89-.86,1,1,0,0,0-1.12-.74,2.9,2.9,0,0,1-2.27-.65c-2.27-1.5-4-3.6-6-5.37a20.31,20.31,0,0,1-3.92-5.49,35.61,35.61,0,0,1-3.43-7.57,17.8,17.8,0,0,1-.84-3.76,23.89,23.89,0,0,0-.42-3,18.2,18.2,0,0,1-.51-4.78,23.07,23.07,0,0,0-.35-8,12.34,12.34,0,0,0-.62-2.08c-.39-.82-1.21-1.33-1.46-2.22-.6-2.08-1.47-4.08-2-6.21a70.92,70.92,0,0,1-1.82-9,34,34,0,0,1-.56-5.43,25.15,25.15,0,0,0,0-3.13,25,25,0,0,1,.31-6.79c.05-.24,0-.5.34-.58a12.43,12.43,0,0,1,.09,3.39c-.09,1.3.31,2.54.29,3.82a.14.14,0,0,0,.13.19l.3.54c-.13.47-.23.93.3,1.23l.18.63c-.13.17-.08.28.11.34l.11.23.1.23c.13.35.27.69.4,1l.09.23a.11.11,0,0,1,.05.09l.11.22a.1.1,0,0,1,.06.09l.12.2a.14.14,0,0,1,.07.1l.09.13.47.86.14.21.25.69.08.16.14.23.17.17c.92,1,1.78,2.16,2.77,3.13a8.45,8.45,0,0,0,3.54,1.87,55.42,55.42,0,0,0,13.42,2.13,28.88,28.88,0,0,0,8.91-.59c1.09-.28,2.18-.57,3.39-.95a9.1,9.1,0,0,0-1,2.58,6.94,6.94,0,0,0,.48,3.62,1.66,1.66,0,0,0,1.88,1,9.26,9.26,0,0,1,5.82.56c1.33.65,2.43,1.66,3.7,2.41,3,1.75,6.14,2.88,9.75,1.52a9.91,9.91,0,0,0,2.78-1.52,7.82,7.82,0,0,1,4.41-1.65,5.09,5.09,0,0,0,4.69-6.16c-.08-.52-.49-.88-.65-1.36.18-.17.29,0,.37,0,2,1.56,4.38,2,6.78,2.56a17.74,17.74,0,0,0,5.58.58c3.82-.36,7.64-.61,11.39-1.81C253.54,255.13,255.15,254.26,256.86,253.63ZM199,292.38l-1.49-.22c-.31-.06-.57,0-.51.37a4.17,4.17,0,0,0,1.26,2.56,24.37,24.37,0,0,0,4.08,2.8,29.91,29.91,0,0,0,3.15,1.7A6.91,6.91,0,0,0,210,300c1-.27,2.12,0,3.15-.44.51-.23.93-.58,1.46-.79,2.08-.8,4.3-1.26,6.16-2.59a24.08,24.08,0,0,0,4.71-4.64c.13-.15.38-.35.16-.53s-.4.06-.57.16a27.86,27.86,0,0,1-3,1.7,39.25,39.25,0,0,1-5.43,2.19c-.16,0-.34.18-.51,0,.06-.06.1-.14.16-.17a4.47,4.47,0,0,0,2.88-2.05c0-.09.16-.14.25-.2a32.82,32.82,0,0,0,5.33-4.34,65.6,65.6,0,0,0,7.19-8,3,3,0,0,0,.82-1.85,5.38,5.38,0,0,0,1.9-.66.77.77,0,0,0,.35-.68c0-.24-.22-.26-.41-.28a27.14,27.14,0,0,0-2.7-.28,39.58,39.58,0,0,1-8.4-1.43,11.28,11.28,0,0,0-7.4.38,12.84,12.84,0,0,1-2.83,1c-1.37.27-2.42-.41-3.49-1a7.3,7.3,0,0,0-2.84-1.14,12.9,12.9,0,0,0-5.08.66,45,45,0,0,1-10.21,1.91c-1.59.08-3.16.06-4.74.12-.29,0-.76-.13-.74.36s.41.42.74.4a8.54,8.54,0,0,1,1.75.21,1.65,1.65,0,0,0,.26.81c1.28,2.31,2.88,4.41,4.26,6.64,1.1,1.78,3,2.85,4.23,4.49A7.54,7.54,0,0,1,199,292.38Zm-17.92-20.82a6.6,6.6,0,0,0-.8,3.91,13.91,13.91,0,0,0,.66,3,6.74,6.74,0,0,0,1.24,2.29,8.09,8.09,0,0,1,1.75,3.06c.3,1.19,1,2.2,1.28,3.39a2.68,2.68,0,0,0,.52.93c.24.31.54.66,1,.37a.92.92,0,0,0,.4-1.22c-1-2.51-2.39-4.85-3.6-7.28a24,24,0,0,1-1.8-4C181.35,274.6,181.44,273.06,181.09,271.56Zm60.82,3.17c-.33-1.79-.24-3.87-.8-5.9a18,18,0,0,0-4.49-7.5c-.12-.13-.27-.3-.48-.17s-.14.33-.06.5a10.89,10.89,0,0,0,1.17,2.43,22.3,22.3,0,0,1,2.19,4,4.89,4.89,0,0,1,.63,2,38.58,38.58,0,0,1,.23,5.69,1.57,1.57,0,0,0,0,.61.61.61,0,0,0,.49.46.52.52,0,0,0,.54-.41A3.46,3.46,0,0,0,241.91,274.73ZM193.3,256c0-.21,0-.33-.08-.36a.4.4,0,0,0-.29.08,3.75,3.75,0,0,0-.87,1,43,43,0,0,1-4.59,6,32.11,32.11,0,0,0-3.5,3.88c-.18.26-.48.56-.19.83s.58-.1.78-.3a54.07,54.07,0,0,0,5.32-5.59,35.26,35.26,0,0,0,3.18-4.92C193.17,256.32,193.24,256.08,193.3,256Z"/><path class="cls-5" d="M218.14,233.46c.49.51.26,1.22.3,1.8a46.6,46.6,0,0,0,1.14,5.45,18.38,18.38,0,0,0,3.09,6.73c.5.77,1,1.57,1.43,2.37a11.84,11.84,0,0,0,3,3.41c.75.58.83,1.46,1.16,2.22a5,5,0,0,1,.25,4.45,4.9,4.9,0,0,1-3.12,2.71c-1.17.36-2.4.29-3.58.64a4.24,4.24,0,0,0-1.79,1.06,13.16,13.16,0,0,1-2.89,1.81c-3.54,1.93-6.71.77-9.81-.92-1.78-1-3.22-2.51-5.07-3.39A8.75,8.75,0,0,0,198,261c-.44,0-.87.12-1.31.17-1.44.17-1.9-.06-2.3-1.44a5.73,5.73,0,0,1,.2-4,3.37,3.37,0,0,0,.55-2,.51.51,0,0,1,.24-.47,1.93,1.93,0,0,1,.28-.22c2.83-1.4,4.4-4.08,6.13-6.59a103.09,103.09,0,0,0,6.41-10.71,6.74,6.74,0,0,1,4-3.45,1.39,1.39,0,0,1,.35,0,1.7,1.7,0,0,1-.32,1,17.28,17.28,0,0,0-1.67,3.72,11.82,11.82,0,0,1-.81,2.05,25.12,25.12,0,0,0-1.78,4.18,69.09,69.09,0,0,0-3,10.42c-.44,2.16-.41,4.32.93,6.08a11.72,11.72,0,0,0,3,2.7,6.32,6.32,0,0,0,5.13.8,9.71,9.71,0,0,0,5.43-3.7,7.38,7.38,0,0,0,1.42-4.47,26,26,0,0,0-1-5.51c-.62-2.69-1.18-5.42-1.55-8.18-.25-1.93-.33-3.9-.5-5.85A2.26,2.26,0,0,1,218.14,233.46Z"/><path class="cls-4" d="M218.14,233.46a2.26,2.26,0,0,0-.32,1.94c.17,1.95.25,3.92.5,5.85.37,2.76.93,5.49,1.55,8.18a26,26,0,0,1,1,5.51,7.38,7.38,0,0,1-1.42,4.47,9.71,9.71,0,0,1-5.43,3.7,6.32,6.32,0,0,1-5.13-.8,11.72,11.72,0,0,1-3-2.7c-1.34-1.76-1.37-3.92-.93-6.08a69.09,69.09,0,0,1,3-10.42,25.12,25.12,0,0,1,1.78-4.18,11.82,11.82,0,0,0,.81-2.05,17.28,17.28,0,0,1,1.67-3.72,1.7,1.7,0,0,0,.32-1C214.61,231.79,216.6,231.7,218.14,233.46Zm-3.69,24.39a2,2,0,0,0,1.9-1.45,1.42,1.42,0,0,0-.58-1.65,4.84,4.84,0,0,0-5,.15c-.36.28-.5.69-.08.85a13,13,0,0,1,2.59,1.73A1.9,1.9,0,0,0,214.45,257.85Z"/><path class="cls-4" d="M220.13,225.28l-.3.35a.3.3,0,0,0-.21.3h0c-.33.11-.53.29-.37.65l-.2.65-.08.22c-.44,1.55-1.74,2.06-3.09,2.35a6.91,6.91,0,0,1-4.43-.54,1.34,1.34,0,0,1-.73-.8c-.62-1.64-1.19-3.31-1.92-4.91a9.14,9.14,0,0,0-2.11-2.46c-.38-.37-.8-.68-1.39-1.17a81.83,81.83,0,0,1,14.56.36c.05.08.1.08.17,0l2,.25a11,11,0,0,0-1.6,3.2C220.25,224.25,219.74,224.71,220.13,225.28Z"/><path class="cls-5" d="M222,220.13a15.81,15.81,0,0,0,2.94-3.28c.26-.33.47-.7,1-.63.08.74.55.76,1,.4a1.35,1.35,0,0,1,1.36-.29.72.72,0,0,0,.55-.08c1.27-.73,2.65-.42,3.95-.67,1-.19,2-.28,2.93-.41a11.37,11.37,0,0,1,2.25-.12.46.46,0,0,0,.53.48c2,0,3.44,1.24,5.19,1.78a21.26,21.26,0,0,0,2.74,1.12,1,1,0,0,1,.87.83,9.63,9.63,0,0,1-2.88.11c-2.78-.18-5.54.33-8.31.45s-5.49,1-8.29,1a10.67,10.67,0,0,1-2.48-.33C224.23,220.2,223.07,220.44,222,220.13Z"/><path class="cls-5" d="M207.08,233.31c-.32-1.12-.59-2.26-1-3.35-.33-.87-1.17-1.4-1.74-2.13a20.06,20.06,0,0,1-1.59-2.08,5,5,0,0,0-1.94-1.64,20.4,20.4,0,0,0-6.48-2.73,2,2,0,0,1-1.84-1.58,28.39,28.39,0,0,1,5,.76c1.51.3,3,.71,4.49,1.06a7.4,7.4,0,0,1,5.6,5.13C208.44,229.07,207.82,231.16,207.08,233.31Z"/><path class="cls-5" d="M247.3,219.26a1,1,0,0,0-.87-.83,21.26,21.26,0,0,1-2.74-1.12c-1.75-.54-3.23-1.8-5.19-1.78a.46.46,0,0,1-.53-.48,1.81,1.81,0,0,0,1.32-.16c.55-.23,1.5-.45,1.68-.18.52.81,1.08.42,1.63.22a7.25,7.25,0,0,1,4.57-.3c.55.15,1.11.24,1.65.4,1.79.55,3.74.5,5.49,1.18-.12.55-.2,1.1-.36,1.63a7.19,7.19,0,0,0-.31,2h-.3a.51.51,0,0,0-.52-.06l-4-.49a.42.42,0,0,0-.65,0h-.35c0-.09-.08-.1-.15,0Z"/><path class="cls-5" d="M228.61,223.24a1.68,1.68,0,0,1-.72,1,18.64,18.64,0,0,0-4.49,4.89,16.21,16.21,0,0,0-2.17,6.49,4.35,4.35,0,0,1-.53,2.16,11.41,11.41,0,0,1-.08-5.69,8.83,8.83,0,0,0,.36-1.74,4,4,0,0,1,1.35-2.69,18,18,0,0,1,6-4.33A1.06,1.06,0,0,1,228.61,223.24Z"/><path class="cls-5" d="M220.13,225.28c-.39-.57.12-1,.27-1.52a11,11,0,0,1,1.6-3.2c1-.11,1.91.36,2.91.22a.26.26,0,0,1,.31.19c0,.19-.16.28-.31.34a14.41,14.41,0,0,0-1.48.72,7.88,7.88,0,0,0-2.88,2.88C220.45,225.07,220.35,225.24,220.13,225.28Z"/><path class="cls-8" d="M237.53,221.44c-.13.49.28.27.45.3.61.08,1.27-.09,1.82.28a18.44,18.44,0,0,0-4.81,0,3.72,3.72,0,0,1-1.44.19v0A8.86,8.86,0,0,1,237.53,221.44Z"/><path class="cls-8" d="M249.35,221a11.64,11.64,0,0,1-3.95-.09A27.36,27.36,0,0,1,249.35,221Z"/><path class="cls-8" d="M244.82,220.87c-.83.17-1.66.36-2.49.5a1.2,1.2,0,0,1-.87-.09C242.59,221.26,243.67,220.62,244.82,220.87Z"/><path class="cls-8" d="M232.54,222.67l0-.34a1.37,1.37,0,0,1,1-.1v0A2.07,2.07,0,0,1,232.54,222.67Z"/><path class="cls-8" d="M241,221.28a2.7,2.7,0,0,1-1.64,0A3.78,3.78,0,0,1,241,221.28Z"/><path class="cls-8" d="M219.24,226.59c-.16-.36,0-.54.37-.65A1,1,0,0,1,219.24,226.59Z"/><path class="cls-8" d="M250.89,221a1.39,1.39,0,0,1-1.06,0A1.67,1.67,0,0,1,250.89,221Z"/><path class="cls-8" d="M248.17,218.35a.41.41,0,0,1,.64,0A1,1,0,0,1,248.17,218.35Z"/><path class="cls-8" d="M239,221.33a.81.81,0,0,1-.71,0A.75.75,0,0,1,239,221.33Z"/><path class="cls-8" d="M231.59,222.53a.75.75,0,0,1-.67,0A.65.65,0,0,1,231.59,222.53Z"/><path class="cls-8" d="M252.87,218.82a.57.57,0,0,1,.52.06A.41.41,0,0,1,252.87,218.82Z"/><path class="cls-8" d="M235.54,218.86c-.09-.13-.16-.32,0-.41s.17.12.21.23Z"/><path class="cls-8" d="M219.62,225.93a.3.3,0,0,1,.21-.3A.24.24,0,0,1,219.62,225.93Z"/><path class="cls-8" d="M219,227.46l.08-.22Z"/><path class="cls-8" d="M244,244.62l-.09-.23Z"/><path class="cls-5" d="M200.22,254.85l.59.39c1.79-9.59,15.24-14.65,16-24.43.33-4.4-2.25-8.56-5.8-11.11s-8-3.71-12.37-4.42a73.33,73.33,0,0,0-21.49-.23c-1.72.24-3.77.42-4.86-.89a4.61,4.61,0,0,1-.81-2.61c-.9-10.71,3.05-21.57,9-30.85s14-17.29,21.93-25.21c-13.3-4.41-29.45,1.24-37.49,13.09-5.69,8.38-7.26,18.81-7.34,28.75s1.16,19.67.46,29.41c-.61,8.52-2.69,17-1.48,25.36,1.3,8.87.66,12.13,3.26,20.63a169.36,169.36,0,0,0,7.08,19.54c4,9,15,17.77,24.13,21.11,5.24,1.92,14.74,4.05,19.75,1.36-17.65-7.34-34.49-25.17-38.68-43.73-1.22-5.44-1.74-11.21-4.56-16.06-2.94-5-8.41-9.39-7.9-15.28a13.4,13.4,0,0,1,2-5.5,32.33,32.33,0,0,1,20.55-15,31.14,31.14,0,0,1,24.67,4.88c1,.72,2.06,1.7,2,2.95Z"/><path class="cls-8" d="M244.17,244.93l-.12-.22Z"/><path class="cls-8" d="M244.34,245.22l-.11-.2Z"/><path class="cls-8" d="M244.5,245.45l-.08-.13Z"/><path class="cls-8" d="M245.12,246.52l-.15-.21Z"/><path class="cls-8" d="M245.44,247.37l-.08-.16Z"/><path class="cls-8" d="M245.76,247.77l-.18-.17Z"/><path class="cls-8" d="M229.26,222.87,229,223A.19.19,0,0,1,229.26,222.87Z"/><path class="cls-8" d="M220,220.31c-.07.06-.12.06-.17,0Z"/><path class="cls-8" d="M247.67,218.33c.06-.07.11-.06.14,0l-.08,0Z"/><path class="cls-8" d="M232.94,226.12v-.34A.21.21,0,0,1,232.94,226.12Z"/><path class="cls-4" d="M209.82,281.18c-.47,1.3-.56,1.36-2.18,1.24a52.84,52.84,0,0,1-10.7-1.89l-3.21-.9-1.22-.67c-.14-.19-.34-.35-.33-.61,3.17.14,6.36.15,9.53.39,2,.15,4.07.17,6.1.23C210.42,279.05,210,279,209.82,281.18Z"/><path class="cls-4" d="M224.78,281.65c-1.05.06-2,.6-3.05.68-.88.07-1.75.11-2.63.13-1.22,0-2.45.11-3.67.11-.63,0-1.26-.1-1.17-1,0-.49.07-1,.05-1.48s.24-.73.78-.7c1.85.07,3.69.11,5.54.16a65.5,65.5,0,0,0,7-.39c.23,0,.55-.16.63.13s-.26.29-.43.4l-2.71,1.79-.23.12Z"/><path class="cls-5" d="M254.31,216.21c-1.75-.68-3.7-.63-5.49-1.18-.54-.16-1.1-.25-1.65-.4a7.25,7.25,0,0,0-4.57.3c-.55.2-1.11.59-1.63-.22-.18-.27-1.13-.05-1.68.18a1.81,1.81,0,0,1-1.32.16,11.37,11.37,0,0,0-2.25.12c-1,.13-1.94.22-2.93.41-1.3.25-2.68-.06-3.95.67a.72.72,0,0,1-.55.08,1.35,1.35,0,0,0-1.36.29c-.48.36-1,.34-1-.4v-.46l-.28-.06a3.21,3.21,0,0,1-1.83.51c-.19,0-.5,0-.5-.16,0-1-.9-.76-1.44-1-.75-.32-1-.8-.56-1.48a9.92,9.92,0,0,1,3.45-3.3,9.28,9.28,0,0,0,1.4-.9c.77-.68,1.74-.61,2.62-.87a.77.77,0,0,1,.83.21c.48.64,1,.28,1.4,0a1.18,1.18,0,0,1,1.37-.18,1.17,1.17,0,0,0,1.18-.09,3.91,3.91,0,0,1,1.23-.51c.32-.06.73,0,.77.28.12.82.59.51,1,.35a1.17,1.17,0,0,1,1.48.26c.29.37.69.33,1.11.21.67-.2,1.34-.36,2-.53a1.06,1.06,0,0,1,1.28.27,2.12,2.12,0,0,0,1.73.24c.38-.09.73-.13,1,.26s.76.07,1.14,0,.94-.38,1.38,0a1.81,1.81,0,0,0,1.86.38c.89-.23,1-.06.85.83a.31.31,0,0,0,.18.38,33.92,33.92,0,0,1,3.66,2.86c.1.65.81.72,1.12,1.17.18.25.57.38.41.78s-.5.41-.83.47A4.63,4.63,0,0,1,254.31,216.21Zm-24.25-2.57a30.24,30.24,0,0,0,3.92-2.4A10.87,10.87,0,0,0,230.06,213.64Zm13.5-1.18a25.33,25.33,0,0,1,4.61.08A8.79,8.79,0,0,0,243.56,212.46Zm5.22.21a.56.56,0,0,0,.15,0s0,0,.08,0-.06-.07-.09-.07A.6.6,0,0,0,248.78,212.67Z"/><path class="cls-4" d="M258.67,195.66A24.71,24.71,0,0,0,257,185.18a42.52,42.52,0,0,1-1.68-5.78c-.69-3.1-.92-6.34-2.28-9.26-.42-.92-.71-1.93-1.78-2.34a1.8,1.8,0,0,1-.83-.83l-3.64-5.56a34.22,34.22,0,0,0-3.45-4.55,16.19,16.19,0,0,0-4.13-2.83c-1.54-.86-3.27-.76-5-1-1.4-.17-2.83.12-4.23-.15a.79.79,0,0,0-.89.43c-.74,1.33-2,1.25-3.15,1.21a28.17,28.17,0,0,0-5,.06,7.78,7.78,0,0,1-3,.15c-2.41-.67-4.68.14-6.87,1a13,13,0,0,1-6.42,1.18c-1.09-.15-2.21.26-3.25-.17a8,8,0,0,0-2.95-.51,4.17,4.17,0,0,1-3.15-1.52,1.28,1.28,0,0,0-1.23-.6,5.86,5.86,0,0,1-2.76-.55,9.47,9.47,0,0,0-5.38-.74c-1.29.21-2.7.29-3.67-1-.24-.32-.6-.2-1-.08a6.57,6.57,0,0,0-2.46,1.64,47,47,0,0,0-7.11,8.31,27.66,27.66,0,0,0-3.3,7.42c-.47,1.57-1,3.16-1.33,4.78-.4,1.78-.87,3.55-1.22,5.33-.26,1.33-.28,2.71-.54,4a51.94,51.94,0,0,0-.65,12.86c.07,1.13,0,2.27.18,3.41.23,1.55.21,3.16.52,4.7l0,.22a17.74,17.74,0,0,0,.38,3.12,4.5,4.5,0,0,1,0,3.05l2.37.39c.14-.19.6-.32,1.5-.53.05-.25-.19-.24-.3-.34a.52.52,0,0,1-.19-.6.58.58,0,0,1,.62-.38,9.48,9.48,0,0,1,1.69.15c.61.15.92-.09.93-.63,0-.79.41-.87,1-.64a1.57,1.57,0,0,0,1.91-.25,2.63,2.63,0,0,1,2.06-.4,8.39,8.39,0,0,0,2.5,0,8.88,8.88,0,0,1,2.7.17,2,2,0,0,0,1.49-.17.46.46,0,0,1,.32-.09c1.46.28,3-.16,4.42.23.28.06.59.21.84.05,1.13-.75,2.08-.1,3.09.23a1.62,1.62,0,0,0,1.35-.09,2.43,2.43,0,0,1,2.46.43,2.76,2.76,0,0,0,3,.18.72.72,0,0,1,1,.26,4.16,4.16,0,0,0,2.35,1.37.61.61,0,0,1,.31.11,46.16,46.16,0,0,1,3.82,3.71c.29.37.57.79-.15,1.17a1.22,1.22,0,0,0-.53,1c0,.41-.18.6-.4.65,6,.81,12.16,1.58,18,2.25.58-.68,1.1-1.41,1.65-2.11.27-.34.49-.73,1-.65v-.48l-.29-.07a3.2,3.2,0,0,1-1.9.53c-.2,0-.52,0-.52-.16,0-1-.94-.79-1.49-1-.78-.34-1-.83-.58-1.53a10.09,10.09,0,0,1,3.58-3.44,9.43,9.43,0,0,0,1.45-.93c.81-.71,1.81-.64,2.73-.91a.81.81,0,0,1,.86.22c.5.67,1,.28,1.46,0a1.25,1.25,0,0,1,1.42-.18,1.22,1.22,0,0,0,1.23-.1,4.21,4.21,0,0,1,1.28-.52c.33-.07.76,0,.8.28.12.86.61.54,1.06.37a1.23,1.23,0,0,1,1.55.28c.3.38.71.33,1.15.21.7-.2,1.39-.38,2.09-.55a1.13,1.13,0,0,1,1.34.28,2.13,2.13,0,0,0,1.79.25c.4-.1.76-.14,1,.27s.79.07,1.18,0,1-.4,1.44,0a1.85,1.85,0,0,0,1.94.38c.91-.23,1.05,0,.87.87a.34.34,0,0,0,.19.4,36.39,36.39,0,0,1,3.81,3c.75-.85.59-2,.78-2.92.09-.49.19-1,.29-1.46.37-1.86.74-3.72,1-5.6.18-1.53.47-3,.69-4.57C258.93,197.8,258.59,196.76,258.67,195.66Zm-35.3,5.83a28.33,28.33,0,0,1-7.12,1.06A18.76,18.76,0,0,1,212,202a20.25,20.25,0,0,0-5.33-.47c-.79,0-1.58,0-2.59,0a2.07,2.07,0,0,1,1.32-.33,28.21,28.21,0,0,1,7.28.63,19.3,19.3,0,0,0,8.65-.17c1.42-.32,2.85-.61,4.29-.86A5.44,5.44,0,0,1,223.37,201.49ZM225,195a45.3,45.3,0,0,1-6.24.61,42.69,42.69,0,0,1-6-.34c-3.91-.46-7.64-1.68-11.49-2.39a16.43,16.43,0,0,0-5.46.12.58.58,0,0,1-.34,0,7.55,7.55,0,0,1,2.6-.54,17.91,17.91,0,0,1,5.41.59c2.93.67,5.82,1.5,8.82,1.88a39.2,39.2,0,0,0,10,.15,57.45,57.45,0,0,0,7.89-1.4,2.27,2.27,0,0,1,.45,0A23.9,23.9,0,0,1,225,195Z"/><path class="cls-5" d="M170,213.12c-.62-.85-.56-.92,1.15-1.33.05-.23-.19-.22-.29-.32a.49.49,0,0,1-.18-.58.53.53,0,0,1,.58-.36,8.75,8.75,0,0,1,1.63.14c.59.14.89-.08.9-.6,0-.77.39-.85,1-.62a1.49,1.49,0,0,0,1.83-.25,2.56,2.56,0,0,1,2-.37,8.4,8.4,0,0,0,2.4,0,8.2,8.2,0,0,1,2.6.16,1.88,1.88,0,0,0,1.43-.17.47.47,0,0,1,.32-.08c1.4.27,2.85-.16,4.25.21.26.07.56.21.8.06,1.09-.72,2-.1,3,.22a1.58,1.58,0,0,0,1.3-.09,2.38,2.38,0,0,1,2.37.41,2.67,2.67,0,0,0,2.84.18.69.69,0,0,1,.93.25,4,4,0,0,0,2.26,1.31.64.64,0,0,1,.29.12A42.68,42.68,0,0,1,207,215c.28.36.55.76-.14,1.11a1.17,1.17,0,0,0-.51,1c-.06.71-.5.75-1,.51s-1.12-.91-1.82-.12a.39.39,0,0,1-.32,0c-1-.44-2.24-.08-3.26-.57a.78.78,0,0,0-.47-.09,5.83,5.83,0,0,1-3.55-.41.94.94,0,0,0-.85.12c-.17.09-.35.34-.47.31-1.19-.33-2.49.5-3.65-.2a.93.93,0,0,0-1.14,0,.5.5,0,0,1-.39.07c-1.2-.54-2.56-.32-3.77-.75a14.16,14.16,0,0,0-4.47-.79,4.5,4.5,0,0,1-.89-.1,1,1,0,0,0-1.05.21,1,1,0,0,1-1,.14c-1.9-.82-3.82-.18-5.72.08a14.3,14.3,0,0,0-5.16,1.28.49.49,0,0,1-.67-.12.41.41,0,0,1,.22-.61c.68-.32.94-1,1.4-1.5.17-.18,0-.27,0-.41-.27-.59,0-.84.59-.86A2.71,2.71,0,0,0,170,213.12Z"/><path class="cls-5" d="M229.85,194.71a22.51,22.51,0,0,1-5.43,1.27,43.4,43.4,0,0,1-6,.6,40.85,40.85,0,0,1-5.74-.34c-3.76-.43-7.35-1.61-11.05-2.29a16,16,0,0,0-5.26.12.53.53,0,0,1-.32,0,7.2,7.2,0,0,1,2.5-.51,17.58,17.58,0,0,1,5.21.56,83.51,83.51,0,0,0,8.48,1.81,38.05,38.05,0,0,0,9.6.15,58,58,0,0,0,7.59-1.34A1.69,1.69,0,0,1,229.85,194.71Z"/><path class="cls-5" d="M204.24,202.24a2.05,2.05,0,0,1,1.27-.32,26.5,26.5,0,0,1,7,.61,18.57,18.57,0,0,0,8.32-.17c1.37-.3,2.75-.58,4.13-.82a5.37,5.37,0,0,1-2.12.67,27.94,27.94,0,0,1-6.85,1,18.54,18.54,0,0,1-4.13-.52,19.58,19.58,0,0,0-5.13-.46C206,202.26,205.21,202.24,204.24,202.24Z"/><path class="cls-8" d="M225.62,215.7l.28.06Z"/><path class="cls-4" d="M188.67,277.93a8.54,8.54,0,0,0-1.75-.21c-.33,0-.73,0-.74-.4s.45-.35.74-.36c1.58-.06,3.15,0,4.74-.12a45,45,0,0,0,10.21-1.91,12.9,12.9,0,0,1,5.08-.66,7.3,7.3,0,0,1,2.84,1.14c1.07.63,2.12,1.31,3.49,1a12.84,12.84,0,0,0,2.83-1,11.28,11.28,0,0,1,7.4-.38,39.58,39.58,0,0,0,8.4,1.43,27.14,27.14,0,0,1,2.7.28c.19,0,.4,0,.41.28a.77.77,0,0,1-.35.68,5.38,5.38,0,0,1-1.9.66,1.1,1.1,0,0,0-1.16.9,1.73,1.73,0,0,1-.33.63,58.3,58.3,0,0,1-8.22,8.33c-.66.51-1.42.86-2.12,1.32-1.91,1.27-3.61,2.86-5.81,3.69s-4.46,1-6.48-.43a2,2,0,0,0-.63-.3c-1.7-.48-3.16-1.5-4.94-1.77a5.81,5.81,0,0,1-1.75-.71c-.51-.27-.63-.72-.19-1.07a3.7,3.7,0,0,0,1.1-2.52h0a10.25,10.25,0,0,1,2.47.18,3,3,0,0,0,1.88-.36l-.6-.18c-4.95-1-9.16-3.47-13.13-6.36-.28-.2-.62-.36-.34-.8l1.22.67a35.72,35.72,0,0,0,5.08,3.13,6.66,6.66,0,0,0,1.79.94c4.29,2.1,8.92,2.46,13.68,2.16a16,16,0,0,0,3.64-.5,21.27,21.27,0,0,0,5.4-2.63c.51-.32,1.16-.47,1.46-1.08l.1,0,.23-.12,2.71-1.79c.17-.11.5-.16.43-.4s-.4-.15-.63-.13a65.5,65.5,0,0,1-7,.39c-1.85-.05-3.69-.09-5.54-.16-.54,0-.8.14-.78.7s0,1-.05,1.48c-1.39.17-2.74-.22-4.12-.14a.32.32,0,0,1-.32-.28c.17-2.18.6-2.13-2-2.21-2-.06-4.07-.08-6.1-.23-3.17-.24-6.36-.25-9.53-.39A34,34,0,0,1,188.67,277.93Z"/><path class="cls-5" d="M180.29,275.47a6.6,6.6,0,0,1,.8-3.91c.35,1.5.26,3,.65,4.46a24,24,0,0,0,1.8,4c1.21,2.43,2.58,4.77,3.6,7.28a.92.92,0,0,1-.4,1.22c-.46.29-.76-.06-1-.37a2.68,2.68,0,0,1-.52-.93c-.28-1.19-1-2.2-1.28-3.39a8.09,8.09,0,0,0-1.75-3.06Z"/><path class="cls-5" d="M239.44,268.1a22.3,22.3,0,0,0-2.19-4,10.89,10.89,0,0,1-1.17-2.43c-.08-.17-.15-.37.06-.5s.36,0,.48.17a18,18,0,0,1,4.49,7.5c.56,2,.47,4.11.8,5.9a3.46,3.46,0,0,1-.53,1.71.52.52,0,0,1-.54.41.61.61,0,0,1-.49-.46,1.57,1.57,0,0,1,0-.61Z"/><path class="cls-5" d="M192.06,256.62a3.75,3.75,0,0,1,.87-1,.4.4,0,0,1,.29-.08c.11,0,.13.15.08.36s-.13.37-.24.58a35.26,35.26,0,0,1-3.18,4.92,54.07,54.07,0,0,1-5.32,5.59c-.2.2-.43.63-.78.3s0-.57.19-.83a32.11,32.11,0,0,1,3.5-3.88Z"/><path class="cls-5" d="M188.54,221.73a15.82,15.82,0,0,1,7.57,2.05,13.33,13.33,0,0,1,3.44,2.82c.11.13.19.27.07.43a.33.33,0,0,1-.5.09,2.12,2.12,0,0,1-.38-.29c-1.05-.89-1.08-.94-2.34-.22a12.52,12.52,0,0,1-5,1.55,17.87,17.87,0,0,1-4.95-.13,7.16,7.16,0,0,0-2-.11,7.68,7.68,0,0,1-2.66-.64,9.55,9.55,0,0,0-5.84-.13c-.32.11-.75.35-.94-.07s.24-.6.53-.81A27.45,27.45,0,0,1,186.19,222,23.13,23.13,0,0,1,188.54,221.73Zm3.73,1.44a5.38,5.38,0,0,1,.14,4,17,17,0,0,0,4.61-1.79A13.08,13.08,0,0,0,192.27,223.17Zm-9,.38a17.71,17.71,0,0,0-4.58,1.89,24.21,24.21,0,0,1,4.11,1A3.65,3.65,0,0,1,183.26,223.55Zm3-.41a1.16,1.16,0,0,0-.84,1c0,.47.16.84.73.83s.86-.56.94-1S186.76,223.23,186.22,223.14Zm4.49,1.25c0-.35-.13-.63-.58-.6s-.93.26-1,.8.29.61.69.61S190.62,224.87,190.71,224.39Z"/><path class="cls-8" d="M197.75,235.51c-.3.7-1,.89-1.58,1.22a17.38,17.38,0,0,1-4.24,1.85,6.84,6.84,0,0,1,1.85-.93,36.09,36.09,0,0,0,3.94-2.18Z"/><path class="cls-8" d="M197.35,232.83a4.86,4.86,0,0,1-3.08,1.5C195.32,233.88,196.33,233.34,197.35,232.83Z"/><path class="cls-8" d="M199.39,234.19a1.38,1.38,0,0,1,1-.84A1.57,1.57,0,0,1,199.39,234.19Z"/><path class="cls-8" d="M197.72,235.47a1.44,1.44,0,0,1,.84-.59.92.92,0,0,1-.81.63Z"/><path class="cls-8" d="M198,232.52a.52.52,0,0,1-.17.12c-.09,0-.16,0-.12-.12a.29.29,0,0,1,.16-.15C198,232.34,198.05,232.4,198,232.52Z"/><path class="cls-8" d="M199.16,234.39h0s0,0,0-.06,0,0,.05,0Z"/><polygon class="cls-8" points="200.73 232.96 200.78 232.99 200.72 233.01 200.73 232.96"/><path class="cls-8" d="M231.9,237.74a9.33,9.33,0,0,1-4.22-2.09A46,46,0,0,0,231.9,237.74Z"/><path class="cls-8" d="M234.87,243.27a10.71,10.71,0,0,1-3.82-1.74C232.33,242.11,233.62,242.65,234.87,243.27Z"/><path class="cls-8" d="M226.36,237.58a9.31,9.31,0,0,1-1.68-3l.21-.12c.51,1,1,2,1.51,3Z"/><path class="cls-8" d="M229.06,240.12a5.22,5.22,0,0,1,1.6,1.2,3.08,3.08,0,0,1-1.67-1.13Z"/><path class="cls-8" d="M227.6,238.88a2.54,2.54,0,0,1-1.24-1.3l0,0a2.79,2.79,0,0,1,1.23,1.31Z"/><path class="cls-8" d="M228.7,240a2,2,0,0,1-1.1-1.13l0,0a2.42,2.42,0,0,1,1.13,1.08Z"/><path class="cls-8" d="M227.19,235.18a1,1,0,0,1-.75-.71A1,1,0,0,1,227.19,235.18Z"/><path class="cls-8" d="M225.62,233.44h-.11a.49.49,0,0,1,0-.12s0,0,.06,0A.36.36,0,0,1,225.62,233.44Z"/><path class="cls-8" d="M226,233.86l.18.23s-.05,0-.07,0-.14-.13-.14-.24Z"/><path class="cls-8" d="M228.76,239.93l.3.19-.07.07-.29-.18Z"/><path class="cls-8" d="M226,233.88l0,0H226Z"/><path class="cls-4" d="M214.78,258.68a2.77,2.77,0,0,1-1.65-.52,19.81,19.81,0,0,0-3.83-2.41c-.63-.22-.42-.8.12-1.2,1.82-1.31,5.51-1.43,7.3-.2a1.93,1.93,0,0,1,.85,2.31A2.85,2.85,0,0,1,214.78,258.68Z"/><path class="cls-8" d="M230.06,213.64a10.87,10.87,0,0,1,3.92-2.4A30.24,30.24,0,0,1,230.06,213.64Z"/><path class="cls-5" d="M243.56,212.46a8.79,8.79,0,0,1,4.61.08A25.33,25.33,0,0,0,243.56,212.46Z"/><path class="cls-8" d="M248.78,212.67a.6.6,0,0,1,.14,0s.06,0,.09.07,0,0-.08,0A.56.56,0,0,1,248.78,212.67Z"/><path class="cls-4" d="M198.81,282.76a35.72,35.72,0,0,1-5.08-3.13l3.21.9a52.84,52.84,0,0,0,10.7,1.89c1.62.12,1.78-1.95,2.25-3.25a.32.32,0,0,0,.32.28c1.39-.08,2.73.31,4.12.14-.09.87.47,3,1.1,3,1.22,0,2.45-.08,3.67-.11.88,0,1.75-.06,2.63-.13,1.06-.08,2-.62,3.05-.68-.3.61-.95.76-1.46,1.08a21.27,21.27,0,0,1-5.4,2.63,16,16,0,0,1-3.64.5,24.73,24.73,0,0,1,3.28-1.57c-.16-.21-.34-.15-.48-.15-2.3,0-4.59,0-6.88-.18a43.52,43.52,0,0,1-5.23-.4C202.94,283.19,200.86,283,198.81,282.76Z"/><path class="cls-4" d="M198.81,282.76c2.05.26,4.13.43,6.16.8a43.52,43.52,0,0,0,5.23.4c2.29.14,4.58.22,6.88.18.14,0,5.58-1.15,5.74-.94-1.18.38-7.46,2.13-8.54,2.66-4.76.3-9.39-.06-13.68-2.16A6.66,6.66,0,0,1,198.81,282.76Z"/><path class="cls-9" d="M224.88,281.63l.23-.12Z"/><path class="cls-8" d="M202.24,286.48c-.34,0-.69,0-1,.26s-.33.23-.48.07a.89.89,0,0,1-.1-.94.3.3,0,0,1,.43-.22c.42.21,1,.24,1.1.83Z"/><path class="cls-2" d="M192.27,223.17a13.08,13.08,0,0,1,4.75,2.2,17,17,0,0,1-4.61,1.79A5.38,5.38,0,0,0,192.27,223.17Z"/><path class="cls-2" d="M183.26,223.55a3.65,3.65,0,0,0-.47,2.85,24.21,24.21,0,0,0-4.11-1A17.71,17.71,0,0,1,183.26,223.55Z"/><path class="cls-2" d="M186.22,223.14c.54.09.9.36.83.81s-.26,1-.94,1-.77-.36-.73-.83A1.16,1.16,0,0,1,186.22,223.14Z"/><path class="cls-2" d="M190.71,224.39c-.09.48-.33.81-.86.81s-.73-.2-.69-.61.45-.77,1-.8S190.67,224,190.71,224.39Z"/><path class="cls-5" d="M240,227.75a7,7,0,0,1-2.63.48l0-.22,2.61-.32Z"/><path class="cls-5" d="M236.63,228.17h-2.08A4.71,4.71,0,0,1,236.63,228.17Z"/><path class="cls-5" d="M240,227.69l.06,0,0,0-.05.06Z"/><path class="cls-10" d="M233.26,223.27c.07-.05.14-.08.21,0l-.12.09Z"/><path class="cls-5" d="M256.48,213.12c-3.13-.74-5.13-3.83-5.69-7s0-6.48.43-9.74a79,79,0,0,0-.5-22.3,21.21,21.21,0,0,0-2.45-7.69,18,18,0,0,0-7.6-6.37,37.9,37.9,0,0,0-25.93-2.77c-4.23,1.05-8.51,2.83-12.74,2.09-2.26-.4-4.32-1.5-6.5-2.21-7.95-2.6-17.18.3-23.47,6.1s-9.85,14-11.28,22.29-.9,16.62,0,24.82c.21,2,.42,4.2-.54,6s-3.61,2.91-5.14,1.57a5,5,0,0,1-1.13-1.8c-2.24-5.1-4.52-10.33-4.92-15.94a48.46,48.46,0,0,1,.81-10.66c2.11-13.9,5.16-28.94,15.53-38.79,11.08-10.54,27.53-12.29,42.57-12.08,9.38.14,19.11.93,27,5.75,8.75,5.34,14.62,8.28,18.8,18.19,7,16.48,6.45,33.95,2.7,51.15Z"/><path class="cls-4" d="M188.42,277s3.42,10.9,14.52,13.71c0,0,8.41,6.15,18.14-3.94l-8.86-.88h-3.73l-2.09.4L204.78,285s-11.08-4-13.46-7.67Z"/><path class="cls-11" d="M147.3,211.48l.39-.34h0c.66.14,1.34,0,2,.18,1.45.31,2.74,1.06,4.21,1.29,1,.82,2.41,1.06,3.31,2.16a9.2,9.2,0,0,0,1.7,1.83c.92,1.17,1.87,2.32,2.68,3.57.24.37.35,1,.78,1s.63-.54,1-.78a3.18,3.18,0,0,0,1-.94l1.27-.72a8.2,8.2,0,0,1,3.49-.94,35.54,35.54,0,0,0,5.16-.25c2.09-.14,4.19-.34,6.28-.56a50.24,50.24,0,0,1,7.56-.17c2.21.11,4.32.68,6.54.81a17.7,17.7,0,0,1,4.94,1,15.65,15.65,0,0,0,6.5.63,9.49,9.49,0,0,0,1.5.08,46.54,46.54,0,0,1,6,0c2.83.07,5.63.47,8.44.7h0c1.09.12,2.19.18,3.26.38,2.89.53,5.7-.18,8.52-.72l.75,0a.27.27,0,0,0,.41,0c.51,0,1,0,1.51-.08a41.83,41.83,0,0,1,6.71-.38,11.22,11.22,0,0,0,3-.08l.31,0,.16,0h1l3,.34.18,0,.8.11a.39.39,0,0,0,.47.08h.32c1.57.07,3,.55,4.6.69a3.32,3.32,0,0,1,1.47.48A9.73,9.73,0,0,1,262,224a13.66,13.66,0,0,1,2,5.28c.17,1.4.12,2.8.2,4.2-.12.85-.26,1.71-.37,2.56a32.48,32.48,0,0,1-1.13,6.32c-.47,1.39-.92,2.79-1.38,4.19a1.37,1.37,0,0,0-.26.28,20.29,20.29,0,0,1-4.94,6.12l-.65.53-1.18.55-1.12.62a32.08,32.08,0,0,1-6.79,1.9,39.37,39.37,0,0,1-10.66.6,2.48,2.48,0,0,0-.35-.13c-2.94-.62-5.94-1.12-8.37-3-.23-.33-.41-.72-1-.58-3.33-2.74-5.46-6.32-7.3-10.14-.38-2-1.12-3.93-1.33-6-.05-.45.09-.93-.16-1.35a5.2,5.2,0,0,0-1.54-1,8.37,8.37,0,0,0-3-.21l-.48.15a1.81,1.81,0,0,0-.82.27,4,4,0,0,0-2.33,1.46c-1,1.66-2,3.3-3,4.94s-2.2,3.55-3.37,5.28a22.52,22.52,0,0,1-2.82,3.5c-.48.47-.73,1.15-1.43,1.42a9.27,9.27,0,0,0-1.85,1.09l-.48.21a9.33,9.33,0,0,1-1.95.84l-1.1.21-1.45.37a46.59,46.59,0,0,1-9,.16l-1.17-.1a50.5,50.5,0,0,1-7.75-1.16,17.67,17.67,0,0,1-5.54-1.9,3.58,3.58,0,0,1-.69-.59c-.78-1.12-1.91-2-2.69-3.09l-.16-.16-.15-.24-.07-.14-.24-.68-.13-.19-.47-.86-.07-.11a.22.22,0,0,0-.09-.1l-.11-.19a.21.21,0,0,0-.06-.1l-.1-.2a.24.24,0,0,0-.06-.11l-.09-.21-.38-1-.1-.21-.11-.24a.32.32,0,0,0-.1-.33l-.17-.61c-.16-.39,0-.85-.31-1.19l-.28-.53-.12-.19a32.47,32.47,0,0,1-.29-4.52,6.06,6.06,0,0,0-.56-3.77,3.73,3.73,0,0,1-.72-1.85,8.06,8.06,0,0,0-.35-1.43A59.41,59.41,0,0,0,156,221c-.27-.49-.38-1.2-1.09-1.38h0c0-.16.17-.38-.18-.32a4.33,4.33,0,0,0-.27-.79c-.27-.51-.46-1.11-1.14-1.26a4.57,4.57,0,0,0-1.8-1.77.44.44,0,0,0-.34-.33,10,10,0,0,0-2.42-1.54.69.69,0,0,0-.45-.22.34.34,0,0,1,0-.14c0-.24.2-.28.39-.32s.55-.2.5-.51-.34-.42-.66-.43a2.31,2.31,0,0,0-1.52.31c0-.25-.05-.5.16-.7A.18.18,0,0,1,147.3,211.48Zm71.94,15.05a.25.25,0,0,0,.19-.29l.31-.34a.57.57,0,0,0,.35-.31,7.72,7.72,0,0,1,2.84-2.86,10.06,10.06,0,0,1,1.44-.7c.14-.05.33-.13.3-.32s-.22-.2-.37-.18c-.94.12-1.82-.29-2.75-.21a1,1,0,0,0-.83-.07l-1.09-.17-.18,0a78.75,78.75,0,0,0-14.11-.34c.54.45,1,.75,1.33,1.11a9.21,9.21,0,0,1,2.07,2.47c.69,1.56,1.25,3.18,1.87,4.78a1.13,1.13,0,0,0,.61.66,6.54,6.54,0,0,0,4.37.55c1.07-.26,2.28-.51,2.74-1.81.2-.09.23-.28.26-.46l.08-.2.2-.64a1,1,0,0,0,.36-.64Zm13.57-3.6a1.88,1.88,0,0,0-1,.1l-.94.19a.73.73,0,0,0-.63-.05c-.63-.26-1.1.24-1.64.38l-.23.13-.42.23a16.24,16.24,0,0,0-6.11,4.32,3.63,3.63,0,0,0-1.26,2.47,5.9,5.9,0,0,1-.34,1.7,11,11,0,0,0,0,5.63,9.36,9.36,0,0,0,.83,3.54,18.54,18.54,0,0,0,4.39,8.05,16.69,16.69,0,0,0,4.58,3.06,12.17,12.17,0,0,0,3.48,1.46,39.1,39.1,0,0,0,8.92.44,27.61,27.61,0,0,0,8.65-1.89,7.58,7.58,0,0,0,3-1.53,3.2,3.2,0,0,0,1-.81,2.25,2.25,0,0,0,1.1-1c.38,0,.49-.26.65-.5.29-.41.55-.84.84-1.26a16.5,16.5,0,0,0,2.63-5.81,62.39,62.39,0,0,0,1.19-6.64c.3-2.37.66-4.77,0-7.07a7.66,7.66,0,0,0-4-4.85,14.38,14.38,0,0,0-4.76-.93,1.62,1.62,0,0,0-.92-.14.38.38,0,0,0-.38-.1l-.28-.06-1.41-.19a1.55,1.55,0,0,0-1,0h-.48a28.78,28.78,0,0,0-3.83-.09h-.61c-1.11-.26-2.15.42-3.24.4H240a4.53,4.53,0,0,0-1.6,0l-.32,0a.67.67,0,0,0-.67,0l-.76.08A9.41,9.41,0,0,0,232.81,222.93Zm-25.87,10.81.13-.26.16-.47a1.27,1.27,0,0,0,.2-.78,6.89,6.89,0,0,0,.11-4.8c-.83-2.19-2-3.93-4.35-4.7-.78-.25-1.57-.42-2.35-.64-1.24-.33-2.5-.59-3.76-.88l-1-.15-.15,0-1.75-.3-.16,0a2.49,2.49,0,0,0-1.3-.12,7.84,7.84,0,0,0-2.05-.2,30,30,0,0,0-8.29-1c-1.09,0-2.17-.19-3.26-.07-2.25.25-4.5.56-6.74.82s-4.24.55-5.75,2.37c-.24.29-.58.56-.63.91a22,22,0,0,1-.67,2.41,60.8,60.8,0,0,0-1.23,6.09,17.75,17.75,0,0,0-.17,4.77,34.12,34.12,0,0,0,.88,4.89,12.47,12.47,0,0,0,3.95,6.38,16,16,0,0,0,4.7,2.68,24,24,0,0,0,5.43,1.4c1.55.18,3.1.36,4.68.43a46.76,46.76,0,0,0,7.39-.08,10.35,10.35,0,0,0,7.32-3.8,38.24,38.24,0,0,0,4.3-6.06c.09-.16.21-.31.31-.46a31.69,31.69,0,0,0,3.6-7A3.08,3.08,0,0,0,206.94,233.74Z"/><path class="cls-4" d="M206.19,288.79l1.69.41a10.92,10.92,0,0,0,3.59.47,11.53,11.53,0,0,0,3.79-1.3.69.69,0,0,0,.3-.23c.14-.23-.07-.54-.34-.59a1.48,1.48,0,0,0-.79.14c-2.38.8-4.92.1-7.39-.08a1.59,1.59,0,0,0-.75.09.53.53,0,0,0-.32.61c.08.24.48.28.57.05Z"/><path class="cls-4" d="M197.62,280.09S210.23,290,223,281.31l-4.76.95-5.26,1.12-5.37-.41-2.88-.83Z"/><path class="cls-4" d="M225.62,233.43l-.11,0a.49.49,0,0,1,0-.12s.06,0,.06,0A.76.76,0,0,1,225.62,233.43Z"/><path class="cls-4" d="M206.08,230c-.33-.87-1.17-1.4-1.74-2.13a21.06,21.06,0,0,1-1.59-2.07,5,5,0,0,0-1.94-1.65,20.4,20.4,0,0,0-6.48-2.73,2,2,0,0,1-1.84-1.58c-1.43-.21-2.86-.36-4.27-.64a30.09,30.09,0,0,0-5.91-.61c-1.26,0-2.52-.15-3.77,0-2.8.27-5.58.71-8.38,1a7,7,0,0,0-4.74,2.52,2,2,0,0,0-.48.84c-.26,1.07-.5,2.15-.82,3.2a37.25,37.25,0,0,0-1.21,6.42,23.1,23.1,0,0,0,.88,8.87,12.53,12.53,0,0,0,4.15,6.67,15,15,0,0,0,4.69,2.64,25.41,25.41,0,0,0,3.6,1.12,54.38,54.38,0,0,0,6.77.79,56.8,56.8,0,0,0,6.78,0c3.33-.25,6.29-1.29,8.45-4.07,1.48-1.91,2.93-3.81,4.23-5.86a40,40,0,0,0,4.62-9.36C206.76,232.19,206.49,231.05,206.08,230Zm-8,2.56s-.1.1-.17.12-.16,0-.13-.12a.35.35,0,0,1,.17-.15C198,232.34,198.05,232.4,198,232.52Zm-.69.31a4.86,4.86,0,0,1-3.08,1.5C195.32,233.89,196.33,233.34,197.35,232.83ZM175,227a.5.5,0,0,1,.23-.5Zm22.76,8.52c-.3.68-1,.88-1.58,1.21a17.77,17.77,0,0,1-4.24,1.85,6.93,6.93,0,0,1,1.84-.93,34.32,34.32,0,0,0,3.94-2.18,1.5,1.5,0,0,1,.85-.59A.93.93,0,0,1,197.75,235.52Zm1.41-1.13,0,0s0,0,0-.05h.05A.33.33,0,0,1,199.16,234.39Zm.23-.2a1.4,1.4,0,0,1,1-.84A1.57,1.57,0,0,1,199.39,234.19Zm1.33-1.17V233l.05,0Z"/><path class="cls-5" d="M226.22,234.08s-.05,0-.07,0-.13-.13-.14-.24l0,0H226A1.24,1.24,0,0,0,226.22,234.08Z"/><path class="cls-5" d="M227.19,235.18a1,1,0,0,1-.75-.71A1,1,0,0,1,227.19,235.18Z"/><path class="cls-5" d="M230.65,241.32a3.15,3.15,0,0,1-1.66-1.13l-.3-.18a2,2,0,0,1-1.09-1.13,2.54,2.54,0,0,1-1.24-1.3,9.1,9.1,0,0,1-1.67-3l.2-.11c.51,1,1,2,1.51,3a2.7,2.7,0,0,1,1.23,1.31,2.39,2.39,0,0,1,1.13,1.09l.3.18A4.91,4.91,0,0,1,230.65,241.32Z"/><path class="cls-5" d="M231.9,237.74a9.07,9.07,0,0,1-4.21-2.1A40.27,40.27,0,0,0,231.9,237.74Z"/><path class="cls-5" d="M234.86,243.27a10.74,10.74,0,0,1-3.81-1.74C232.33,242.11,233.62,242.65,234.86,243.27Z"/><path class="cls-5" d="M199.07,234.08s.05,0,.07,0,.13-.13.13-.24l.06,0h-.08A1.92,1.92,0,0,1,199.07,234.08Z"/><path class="cls-5" d="M198.1,235.18a1,1,0,0,0,.75-.71A1,1,0,0,0,198.1,235.18Z"/><path class="cls-5" d="M194.63,241.32a3.07,3.07,0,0,0,1.66-1.13l.3-.18a2.06,2.06,0,0,0,1.1-1.13,2.54,2.54,0,0,0,1.24-1.3,9.1,9.1,0,0,0,1.67-3l-.2-.11c-.51,1-1,2-1.51,3a2.7,2.7,0,0,0-1.23,1.31,2.3,2.3,0,0,0-1.13,1.09l-.3.18A5.06,5.06,0,0,0,194.63,241.32Z"/><path class="cls-5" d="M193.39,237.74a9.07,9.07,0,0,0,4.21-2.1A40.27,40.27,0,0,1,193.39,237.74Z"/><path class="cls-5" d="M190.43,243.27a10.74,10.74,0,0,0,3.81-1.74C193,242.11,191.67,242.65,190.43,243.27Z"/><path class="cls-4" d="M197.35,232.83a4.86,4.86,0,0,1-3.08,1.5C195.32,233.89,196.33,233.34,197.35,232.83Z"/><path class="cls-4" d="M198.56,234.88a.93.93,0,0,1-.81.64c-.3.68-1,.88-1.58,1.21a17.77,17.77,0,0,1-4.24,1.85,6.93,6.93,0,0,1,1.84-.93,34.32,34.32,0,0,0,3.94-2.18A1.5,1.5,0,0,1,198.56,234.88Z"/><path class="cls-4" d="M198,232.52s-.1.1-.17.12-.16,0-.13-.12a.35.35,0,0,1,.17-.15C198,232.34,198.05,232.4,198,232.52Z"/><path class="cls-4" d="M199.19,234.33a.33.33,0,0,1,0,.06l0,0s0,0,0-.05Z"/><path class="cls-4" d="M200.34,233.35a1.57,1.57,0,0,1-1,.84A1.4,1.4,0,0,1,200.34,233.35Z"/><polygon class="cls-4" points="200.78 232.99 200.72 233.02 200.73 232.96 200.78 232.99"/><path class="cls-5" d="M225.63,233.39a15.42,15.42,0,0,1,5.13-4.18,18.13,18.13,0,0,1,6.42-1.94,17.15,17.15,0,0,1,3.36,0,15.53,15.53,0,0,1,3.26.71,12.86,12.86,0,0,1,5.43,3.46,50.69,50.69,0,0,0-6-1.13c-1-.1-1.95-.15-2.91-.16s-1.94.05-2.9.15a37.69,37.69,0,0,0-5.81,1.13C229.63,232,227.68,232.62,225.63,233.39Z"/><path class="cls-5" d="M200.89,233.39c-2-.77-3.91-1.43-5.82-2a36.27,36.27,0,0,0-5.73-1.13c-1-.1-1.92-.14-2.89-.15s-1.94.06-2.93.16a52.51,52.51,0,0,0-6.1,1.13,14.06,14.06,0,0,1,5.66-3.46,16.13,16.13,0,0,1,3.31-.71,16.82,16.82,0,0,1,9.64,2A13.93,13.93,0,0,1,200.89,233.39Z"/><path class="cls-4" d="M200,290.55l-1.42-.22c-.3-.05-.55,0-.48.36a4.05,4.05,0,0,0,1.28,2.44,23.94,23.94,0,0,0,4,2.67,28.67,28.67,0,0,0,3.05,1.62,6.62,6.62,0,0,0,4.34.37c1-.26,2,0,3-.43.48-.21.86-.55,1.37-.75,2-.76,4.06-1.2,5.79-2.47a22.21,22.21,0,0,0,4.35-4.42c.11-.15.34-.33.13-.51s-.38.06-.54.16a25.33,25.33,0,0,1-2.82,1.61,35.36,35.36,0,0,1-5.11,2.09c-.16,0-.33.18-.49,0,.05-.05.09-.13.15-.15a4.12,4.12,0,0,0,2.68-2c0-.08.14-.13.23-.18a30.34,30.34,0,0,0,4.95-4.15,58.3,58.3,0,0,0,6.6-7.6,2.78,2.78,0,0,0,.73-1.77,5,5,0,0,0,1.79-.63.7.7,0,0,0,.31-.64c0-.23-.22-.25-.4-.27-.86-.09-1.72-.26-2.59-.27a37.75,37.75,0,0,1-8-1.36,10.83,10.83,0,0,0-7.06.36,11.85,11.85,0,0,1-2.66.94,4.71,4.71,0,0,1-3.36-1,7.3,7.3,0,0,0-2.75-1.08,12.15,12.15,0,0,0-4.83.63,42.32,42.32,0,0,1-9.68,1.82c-1.51.08-3,0-4.52.11-.27,0-.72-.12-.69.34s.41.41.72.39a7.78,7.78,0,0,1,1.67.2,1.79,1.79,0,0,0,.28.77c1.29,2.2,2.89,4.2,4.28,6.33,1.1,1.7,2.93,2.72,4.17,4.28A7.27,7.27,0,0,1,200,290.55Z"/><path class="cls-2" d="M210,279.86c-.41,1.25-.5,1.31-2,1.19a51.05,51.05,0,0,1-10.27-1.81l-3.09-.86-1.19-.63c-.13-.18-.33-.33-.34-.58,3,.13,6.08.14,9.12.37,1.93.14,3.88.16,5.82.22C210.5,277.83,210.09,277.79,210,279.86Z"/><path class="cls-2" d="M224.28,280.32c-1,.05-1.87.57-2.88.64-.84.07-1.67.11-2.51.13-1.17,0-2.33.1-3.5.1-.6,0-1.2-.1-1.14-.92,0-.47,0-.95,0-1.42s.2-.69.72-.67c1.76.07,3.53.12,5.29.16a61.79,61.79,0,0,0,6.66-.37c.21,0,.51-.15.6.12s-.23.28-.39.39l-2.53,1.7-.22.12Z"/><path class="cls-9" d="M199.54,281.37a34,34,0,0,1-4.94-3l3.09.86A51.05,51.05,0,0,0,208,281.05c1.54.12,1.82-2.86,2.23-4.11,0,.16.14.29.31.28,1.32-.08,2.62.29,3.94.13-.06.83.35,3.84.95,3.84,1.17,0,2.33-.07,3.5-.1.84,0,1.67-.06,2.51-.13,1-.07,1.88-.59,2.88-.64-.26.58-.88.72-1.35,1a20.38,20.38,0,0,1-5.08,2.51,15.34,15.34,0,0,1-3.45.47,22.48,22.48,0,0,1,3.08-1.5.43.43,0,0,0-.46-.14c-2.2,0-4.39,0-6.57-.17a42.25,42.25,0,0,1-5-.39C203.49,281.78,201.51,281.62,199.54,281.37Z"/><path class="cls-2" d="M199.54,281.37c2,.25,4,.41,5.9.76a42.25,42.25,0,0,0,5,.39c2.18.13,4.37.2,6.57.17.14,0,5.28-1.1,5.45-.9-1.12.37-4.36,3.39-5.38,3.9-4.53.28-11.65-1.42-15.81-3.42A6.54,6.54,0,0,1,199.54,281.37Z"/><path class="cls-9" d="M224.38,280.3l.22-.12Z"/><path class="cls-8" d="M202.93,284.92c-.32,0-.66,0-.9.25s-.31.22-.46.07a.89.89,0,0,1-.13-.9.28.28,0,0,1,.41-.21c.4.2,1,.23,1.08.79Z"/><path class="cls-5" d="M233.51,275.68c-.86-.09-1.72-.26-2.59-.27a37.75,37.75,0,0,1-8-1.36,10.83,10.83,0,0,0-7.06.36,11.85,11.85,0,0,1-2.66.94,4.71,4.71,0,0,1-3.36-1,7.3,7.3,0,0,0-2.75-1.08,12.15,12.15,0,0,0-4.83.63,42.32,42.32,0,0,1-9.68,1.82c-1.51.08-3,0-4.52.11-.27,0-.72-.12-.69.34s.41.41.72.39a7.78,7.78,0,0,1,1.67.2h.12c.27,0,1.59,3,1.82,3.29a23.16,23.16,0,0,0,3.7,4.33c2.25,2,5,3.08,7.68,4.45,4.2,2.18,8.52,3.6,13.21,2,5.84-2,10.39-7.6,14.19-12.19a1.54,1.54,0,0,0,.3-.6,1,1,0,0,1,1.08-.86,5,5,0,0,0,1.79-.63.7.7,0,0,0,.31-.64C233.89,275.72,233.69,275.7,233.51,275.68Zm-26.61,9Zm8.07-6.52c1.76.07,3.53.12,5.29.16a61.79,61.79,0,0,0,6.66-.37c.21,0,.51-.15.6.12s-.23.28-.39.39l-2.53,1.7-.22.12-.1,0c-.26.58-.88.72-1.35,1a20.38,20.38,0,0,1-5.08,2.51,15.34,15.34,0,0,1-3.45.47l-1.26.06-.7-.07h-3.22a25.49,25.49,0,0,1-3.59-.54l-.31-.23a62.47,62.47,0,0,1-9.92-4.63l-.8-.54-.06,0a13.84,13.84,0,0,1-1.49-1.18h0c3,.13,6.08.14,9.12.37,1.93.14,3.88.16,5.82.22"/></g></g></svg>